<svg width="100" height="30" viewBox="0 0 100 30" fill="none" xmlns="http://www.w3.org/2000/svg">
<path d="M9.11288 11.4027C10.8577 11.4027 12.0105 12.2751 12.5091 13.9888L16.2168 12.7425C15.8429 11.3092 15.064 10.0941 13.8177 9.09704C12.5714 8.09999 10.9512 7.57031 9.01941 7.57031C6.77606 7.57031 4.87545 8.34925 3.34872 9.87598C1.822 11.4339 1.07422 13.3656 1.07422 15.7024C1.07422 18.0393 1.822 19.971 3.37988 21.5289C4.93776 23.0868 6.83838 23.8346 9.14404 23.8346C11.0447 23.8346 12.6337 23.3361 13.88 22.3079C15.1263 21.3108 15.9364 20.0957 16.3103 18.6624L12.6648 17.4473C12.4467 18.1639 12.0417 18.7871 11.4809 19.2856C10.8889 19.7841 10.1099 20.0334 9.14404 20.0334C8.02237 20.0334 7.08764 19.6595 6.33985 18.8805C5.59207 18.1016 5.21818 17.0422 5.21818 15.7024C5.21818 14.3938 5.59207 13.3345 6.33985 12.5555C7.08764 11.8077 7.99121 11.4027 9.11288 11.4027ZM25.0787 20.0645C23.9882 20.0645 23.0534 19.6906 22.3057 18.9117C21.5579 18.1639 21.184 17.0734 21.184 15.7024C21.184 14.3315 21.5579 13.2722 22.3057 12.4932C23.0534 11.7454 23.9882 11.3404 25.0787 11.3404C26.138 11.3404 27.0728 11.7454 27.8206 12.4932C28.5683 13.2722 28.9734 14.3315 28.9734 15.7024C28.9734 17.0734 28.5683 18.1639 27.8206 18.9117C27.0728 19.6906 26.138 20.0645 25.0787 20.0645ZM25.0787 7.57031C22.773 7.57031 20.8413 8.34925 19.3145 9.87598C17.7878 11.4339 17.04 13.3656 17.04 15.7024C17.04 18.0704 17.7878 20.0022 19.3145 21.5289C20.8413 23.0868 22.773 23.8346 25.0787 23.8346C27.3844 23.8346 29.285 23.0868 30.8117 21.5289C32.3384 20.0022 33.1174 18.0704 33.1174 15.7024C33.1174 13.3656 32.3384 11.4339 30.8117 9.87598C29.285 8.34925 27.3844 7.57031 25.0787 7.57031ZM39.5199 29.2872V21.8717C40.4234 23.118 41.8878 23.7411 43.9442 23.7411C46.0629 23.7411 47.8078 22.9933 49.1476 21.4666C50.4873 19.971 51.1728 18.0393 51.1728 15.6713C51.1728 13.3345 50.5185 11.4339 49.2722 9.93829C47.9947 8.44273 46.2811 7.69494 44.1 7.69494C42.9783 7.69494 42.0125 7.91305 41.2024 8.34925C40.3611 8.78546 39.7691 9.28398 39.3952 9.90713V8.03768H35.3759V29.2872H39.5199ZM47.0911 15.7024C47.0911 17.0422 46.7173 18.1016 46.0006 18.8805C45.284 19.6595 44.3804 20.0334 43.2899 20.0334C42.1682 20.0334 41.2647 19.6595 40.548 18.8494C39.8003 18.0704 39.4575 17.0111 39.4575 15.7024C39.4575 14.3938 39.8003 13.3656 40.548 12.5867C41.2647 11.8077 42.1682 11.4027 43.2899 11.4027C44.3804 11.4027 45.284 11.8077 46.0006 12.5555C46.7173 13.3345 47.0911 14.3938 47.0911 15.7024ZM58.738 29.4118L68.3657 8.03768H63.9413L60.1712 17.0111L56.0896 8.03768H51.4471L57.9591 21.4354L54.3448 29.4118H58.738Z" fill="#171717"/>
<path d="M67 20.5326C67 21.4102 67.3038 22.119 67.9114 22.7266C68.5189 23.3341 69.2278 23.6042 70.0716 23.6042C70.9155 23.6042 71.6581 23.3341 72.2656 22.7266C72.8732 22.119 73.177 21.4102 73.177 20.5326C73.177 19.6887 72.8732 18.9799 72.2656 18.3723C71.6581 17.7647 70.9155 17.4609 70.0716 17.4609C69.2278 17.4609 68.5189 17.7647 67.9114 18.3723C67.3038 18.9799 67 19.6887 67 20.5326Z" fill="#171717"/>
<path d="M76.3125 19.1944C76.3125 20.4407 76.7799 21.5312 77.7458 22.4348C78.7116 23.3695 79.9891 23.8057 81.5781 23.8057C83.6034 23.8057 85.0989 23.0579 86.096 21.5312C86.096 22.3101 86.1271 22.9333 86.2518 23.3695H90.053C89.9284 22.684 89.8661 21.8739 89.8661 20.9392V13.3991C89.8661 11.7166 89.3052 10.3145 88.2459 9.22395C87.1553 8.13343 85.4728 7.57259 83.1983 7.57259C81.2666 7.57259 79.7398 8.10227 78.587 9.09932C77.403 10.1275 76.7487 11.3115 76.6241 12.6201L80.3007 13.3991C80.363 12.7136 80.6434 12.1216 81.1419 11.6231C81.6404 11.1557 82.3571 10.9065 83.2295 10.9065C84.0396 10.9065 84.6939 11.0934 85.1301 11.4673C85.5663 11.8412 85.8156 12.3397 85.8156 12.9005C85.8156 13.5237 85.4105 13.8976 84.6627 13.9911L80.8927 14.5519C79.5217 14.77 78.4312 15.2685 77.59 16.0475C76.7176 16.8576 76.3125 17.8858 76.3125 19.1944ZM82.4505 20.7211C81.8274 20.7211 81.3289 20.5653 80.9861 20.2226C80.6122 19.8799 80.4565 19.4436 80.4565 18.9451C80.4565 17.8546 81.0796 17.2003 82.3571 17.0134L85.8156 16.4837V17.1691C85.8156 18.4466 85.4728 19.3502 84.8497 19.911C84.2265 20.4718 83.4164 20.7211 82.4505 20.7211ZM97.1745 23.3695V8.03996H93.0305V23.3695H97.1745ZM92.532 3.02358C92.532 3.70905 92.7812 4.30104 93.2798 4.79957C93.7783 5.29809 94.3703 5.54735 95.0869 5.54735C95.7724 5.54735 96.3955 5.29809 96.894 4.79957C97.3926 4.30104 97.6418 3.70905 97.6418 3.02358C97.6418 2.30696 97.3926 1.68381 96.894 1.18528C96.3955 0.686761 95.7724 0.4375 95.0869 0.4375C94.3703 0.4375 93.7783 0.717918 93.2798 1.21644C92.7812 1.71496 92.532 2.33812 92.532 3.02358Z" fill="#171717"/>
</svg>
