<svg width="87" height="24" viewBox="0 0 87 24" fill="none" xmlns="http://www.w3.org/2000/svg">
<path d="M9.84173 4.41588H22.7369L22.9205 3.59669C23.1889 2.32554 22.2284 1.125 20.929 1.125H8.40109C6.77684 1.125 5.37857 2.25491 5.02547 3.8368L2.28542 16.4919C2.01707 17.763 2.97749 18.9636 4.2769 18.9636H5.03959L7.83614 6.02601C8.048 5.09383 8.88131 4.41588 9.84173 4.41588Z" fill="#00CDFA"/>
<path d="M23.4999 4.4165H22.7372L19.9406 17.354C19.7429 18.2862 18.9096 18.9642 17.9492 18.9642H5.05399L4.87038 19.7834C4.60203 21.0545 5.56246 22.2551 6.86186 22.2551H19.3898C21.0141 22.2551 22.4123 21.1251 22.7654 19.5433L25.5055 6.90232C25.7738 5.61704 24.7993 4.4165 23.4999 4.4165Z" fill="url(#paint0_linear_1968_2528)"/>
<path d="M19.9404 17.354L22.7369 4.4165H9.84173C8.8813 4.4165 8.04799 5.08033 7.85025 6.02663L5.05371 18.9642H17.9489C18.9093 18.9642 19.7285 18.2862 19.9404 17.354Z" fill="#3A00FF"/>
<path d="M9.24859 14.0272L8.31543 9.17578H9.7788L10.2295 12.2033L11.7088 9.17578H12.6949L13.2729 12.2033L14.6302 9.17578H16.0936L13.7235 14.0272H12.4988L11.9155 11.1853L10.4893 14.0272H9.24859Z" fill="white"/>
<path d="M15.5801 13.2422L16.3436 12.3568C16.6882 12.7809 17.123 12.9983 17.6585 12.9983C18.0031 12.9983 18.3053 12.8552 18.3531 12.6166C18.369 12.4734 18.2735 12.3515 18.0508 12.2454C17.9978 12.2189 17.8812 12.1765 17.6956 12.1129C17.3298 11.9697 17.1707 11.9167 16.8526 11.7152C16.4072 11.4395 16.1951 11.0578 16.2693 10.4003C16.4125 9.50426 17.2343 9.00586 18.2735 9.00586C18.984 9.00586 19.5672 9.23914 20.0391 9.70042L19.2862 10.5806C18.9734 10.289 18.6129 10.1458 18.2046 10.1458C17.8759 10.1458 17.6797 10.2412 17.6373 10.448C17.6002 10.6177 17.6903 10.7608 17.9024 10.8563C17.9713 10.8934 18.1145 10.9517 18.3266 11.0312C18.5386 11.1108 18.7189 11.1797 18.8674 11.2645C19.3445 11.466 19.9066 11.9379 19.7369 12.659C19.6574 13.1309 19.4188 13.502 19.0158 13.7671C18.6182 14.0322 18.1357 14.1648 17.5949 14.1648C16.7253 14.1595 16.052 13.8572 15.5801 13.2422Z" fill="white"/>
<path d="M33.3532 15.9867H31.9829L29.2988 7.87793H31.0788L32.7175 13.3309L34.554 7.87793H35.5853L37.4641 13.3309L39.0746 7.87793H40.8545L38.1846 15.9867H36.8143L35.0908 10.675L33.3532 15.9867Z" fill="#171717"/>
<path d="M42.3801 15.9865H40.8262V10.0109H42.3236V10.8161C42.6768 10.1663 43.2277 9.85547 43.9623 9.85547C44.2025 9.85547 44.4426 9.89785 44.6828 9.98261L44.5556 11.4659C44.2872 11.3812 44.0612 11.3388 43.8493 11.3388C43.3972 11.3388 43.0441 11.4942 42.7757 11.7908C42.5214 12.0875 42.3801 12.5396 42.3801 13.147V15.9865V15.9865Z" fill="#171717"/>
<path d="M46.7738 8.38696C46.7738 8.65537 46.6891 8.88139 46.5054 9.06504C46.3218 9.24869 46.0958 9.33345 45.8274 9.33345C45.5589 9.33345 45.3329 9.24869 45.1493 9.06504C44.9656 8.88139 44.8809 8.65537 44.8809 8.38696C44.8809 8.11855 44.9656 7.89252 45.1493 7.723C45.3329 7.53935 45.5589 7.45459 45.8274 7.45459C46.0958 7.45459 46.3218 7.53935 46.5054 7.723C46.6891 7.89252 46.7738 8.11855 46.7738 8.38696ZM46.5902 10.0115V15.9872H45.0363V10.0115H46.5902V10.0115Z" fill="#171717"/>
<path d="M51.394 14.4186L51.8602 15.6335C51.3658 15.9585 50.7724 16.128 50.0944 16.128C49.4021 16.128 48.8936 15.9302 48.5404 15.5347C48.1872 15.1391 48.0177 14.5458 48.0177 13.7688V11.2966H47.043V9.99695H48.0318V7.87793H49.5717V9.99695H51.5494V11.2966H49.5717V13.6699C49.5717 14.3763 49.8542 14.7294 50.4193 14.7294C50.7018 14.7294 51.0408 14.6305 51.394 14.4186Z" fill="#171717"/>
<path d="M57.8635 12.8645C57.8635 13.0481 57.8493 13.2742 57.8069 13.5426H53.3146C53.5407 14.3902 54.1198 14.814 55.0522 14.814C55.7444 14.814 56.3943 14.6162 56.9876 14.2065L57.595 15.2943C56.8322 15.8452 55.9705 16.1136 54.9816 16.1136C53.9362 16.1136 53.131 15.817 52.5659 15.2095C52.015 14.6162 51.7324 13.8675 51.7324 12.9916C51.7324 12.0734 52.015 11.3247 52.5942 10.7455C53.1734 10.1521 53.9221 9.85547 54.8403 9.85547C55.7162 9.85547 56.4225 10.1239 56.9876 10.6607C57.5809 11.2116 57.8635 11.9462 57.8635 12.8645ZM54.8686 11.141C54.4871 11.141 54.1481 11.254 53.8797 11.48C53.6113 11.7061 53.4276 12.0027 53.3288 12.3983H56.366C56.2954 12.0169 56.1259 11.7061 55.8574 11.48C55.589 11.254 55.2641 11.141 54.8686 11.141Z" fill="#171717"/>
<path d="M60.4624 16.1422C59.417 16.1422 58.5977 15.7608 57.9902 14.9838L58.8096 14.0091C59.0215 14.2634 59.2758 14.4611 59.5724 14.6165C59.8691 14.7719 60.1658 14.8425 60.4624 14.8425C60.7026 14.8425 60.8862 14.786 61.0557 14.673C61.2111 14.56 61.2959 14.4187 61.2959 14.2492C61.2959 14.0373 61.1546 13.8678 60.8721 13.7407C60.7873 13.6983 60.5472 13.6135 60.1658 13.4722C59.8267 13.3451 59.5724 13.2462 59.4029 13.1473C58.7107 12.8224 58.3717 12.2997 58.3717 11.5934C58.3717 11.0707 58.5694 10.6469 58.9791 10.2937C59.3747 9.95468 59.9256 9.78516 60.6037 9.78516C61.4513 9.78516 62.1576 10.0677 62.6945 10.6469L61.9316 11.6499C61.5078 11.2543 61.0557 11.0566 60.5613 11.0566C60.3635 11.0566 60.194 11.0989 60.0669 11.1978C59.9397 11.2967 59.8691 11.4097 59.8691 11.551C59.8691 11.8053 60.0386 11.9889 60.3918 12.1019C61.1688 12.3986 61.6491 12.5823 61.8327 12.6811C62.5108 13.0343 62.8357 13.5429 62.8357 14.1927C62.8357 14.7578 62.6097 15.2098 62.1718 15.5771C61.748 15.9586 61.1829 16.1422 60.4624 16.1422Z" fill="#171717"/>
<path d="M63.1172 12.9926C63.1172 12.1026 63.4138 11.368 64.0213 10.7605C64.6287 10.1531 65.3916 9.84229 66.324 9.84229C67.2563 9.84229 68.0192 10.1531 68.6266 10.7605C69.22 11.3539 69.5307 12.1026 69.5307 12.9926C69.5307 13.8826 69.2341 14.6313 68.6266 15.2246C68.0192 15.832 67.2563 16.1287 66.324 16.1287C65.3916 16.1287 64.6287 15.832 64.0213 15.2246C63.4138 14.6313 63.1172 13.8826 63.1172 12.9926ZM65.1373 14.2075C65.4481 14.5324 65.8437 14.7019 66.324 14.7019C66.7902 14.7019 67.1716 14.5324 67.4965 14.2075C67.8214 13.8684 67.9768 13.4587 67.9768 12.9926C67.9768 12.5264 67.8214 12.1167 67.4965 11.7918C67.1716 11.4669 66.7902 11.2973 66.324 11.2973C65.8437 11.2973 65.4481 11.4669 65.1373 11.7918C64.8265 12.1167 64.6711 12.5123 64.6711 12.9926C64.6711 13.4729 64.8265 13.8825 65.1373 14.2075Z" fill="#171717"/>
<path d="M71.7209 15.9865H70.167V10.0109H71.6786V10.8443C71.834 10.5477 72.0882 10.3075 72.4273 10.1239C72.7663 9.94023 73.1336 9.85547 73.5574 9.85547C74.2073 9.85547 74.7582 10.0674 75.2103 10.5053C75.6623 10.9432 75.8883 11.5507 75.8883 12.3418V16.0006H74.3344V12.7656C74.3344 12.2994 74.2214 11.9321 73.9954 11.6778C73.7693 11.4235 73.4585 11.2823 73.0771 11.2823C72.6674 11.2823 72.3425 11.4235 72.0882 11.7061C71.834 11.9886 71.7068 12.3559 71.7068 12.7938V15.9865H71.7209Z" fill="#171717"/>
<path d="M78.5444 8.38696C78.5444 8.65537 78.4596 8.88139 78.2759 9.06504C78.0923 9.24869 77.8663 9.33345 77.5979 9.33345C77.3295 9.33345 77.1034 9.24869 76.9198 9.06504C76.7361 8.88139 76.6514 8.65537 76.6514 8.38696C76.6514 8.11855 76.7361 7.89252 76.9198 7.723C77.1034 7.53935 77.3295 7.45459 77.5979 7.45459C77.8663 7.45459 78.0923 7.53935 78.2759 7.723C78.4596 7.89252 78.5444 8.11855 78.5444 8.38696ZM78.3607 10.0115V15.9872H76.8068V10.0115H78.3607V10.0115Z" fill="#171717"/>
<path d="M82.1609 16.1283C81.2427 16.1283 80.4799 15.8316 79.8724 15.2524C79.2791 14.6732 78.9824 13.9245 78.9824 13.0063C78.9824 12.088 79.2791 11.3393 79.8865 10.7601C80.494 10.1668 81.271 9.87012 82.2033 9.87012C82.8108 9.87012 83.3759 10.0114 83.8703 10.308C84.3647 10.6047 84.7462 11.0144 84.9863 11.5371L83.7432 12.2152C83.3759 11.6077 82.8673 11.311 82.2175 11.311C81.723 11.311 81.3133 11.4806 81.0026 11.8055C80.6776 12.1304 80.5222 12.526 80.5222 13.0063C80.5222 13.5007 80.6776 13.9104 80.9884 14.2353C81.3133 14.5602 81.7089 14.7156 82.1892 14.7156C82.5 14.7156 82.7967 14.6308 83.0933 14.4613C83.3759 14.2918 83.5878 14.0799 83.7149 13.8115L84.9722 14.5461C84.7179 15.0264 84.3365 15.4078 83.842 15.7045C83.3335 15.9729 82.7684 16.1283 82.1609 16.1283Z" fill="#171717"/>
<defs>
<linearGradient id="paint0_linear_1968_2528" x1="4.82492" y1="13.3378" x2="25.545" y2="13.3378" gradientUnits="userSpaceOnUse">
<stop stop-color="#FFB3FF"/>
<stop offset="0.5335" stop-color="#FF76DF"/>
<stop offset="1" stop-color="#C239C6"/>
</linearGradient>
</defs>
</svg>
